PathFileType	4	(X/Y/Z)	C:/Users/beibeiliu/ov580/test_trc/User3\sequence.12_training_dense_right.trc
DataRate	CameraRate	NumFrames	NumMarkers	Units	OrigDataRate	OrigDataStartFrame	OrigNumFrames
120	120	18	19	mm	120	51	75
Frame#	Time	ThumbCMC			ThumbMCP			ThumbIP			ThumbTip			IndexMCP			IndexPIP			IndexTip			MiddleMCP			MiddlePIP			MiddleTip			RingMCP			RingPIP			RingTip			PinkyMCP			PinkyPIP			PinkyTip			BackHand1			BackHand2			BackHand3	
		X0	Y0	Z0	X1	Y1	Z1	X2	Y2	Z2	X3	Y3	Z3	X4	Y4	Z4	X5	Y5	Z5	X6	Y6	Z6	X7	Y7	Z7	X8	Y8	Z8	X9	Y9	Z9	X10	Y10	Z10	X11	Y11	Z11	X12	Y12	Z12	X13	Y13	Z13	X14	Y14	Z14	X15	Y15	Z15	X16	Y16	Z16	X17	Y17	Z17	X18	Y18	Z18	
50	0.416667	118.856	36.3989	-35.5925	104.941	20.8758	-60.1874	99.4673	10.9695	-85.0818	104.927	2.15907	-111.192	123.385	55.2669	-108.081	117.655	29.3766	-128.115	124.004	0.541233	-118.783	147.269	67.3378	-114.489	141.686	61.7473	-139.358	141.563	47.4373	-169.543	175.316	63.7338	-104.636	174.131	64.6012	-129.065	176.578	58.0474	-159.489	196.018	50.737	-89.7959	203.998	52.5408	-110.76	217.378	48.3927	-129.596	174.293	66.3534	-54.9312	178.477	64.253	-25.3286	146.66	66.2254	-35.3413	
51	0.425	96.6895	39.7019	-37.0077	83.7419	24.683	-65.4644	76.5432	11.0196	-87.0602	79.5128	-1.2052	-110.653	104.475	48.6904	-113.563	95.2493	23.3857	-131.605	93.1805	-7.93426	-119.239	127.988	54.8526	-119.819	120.052	46.4336	-146.819	110.719	29.614	-176.745	154.633	49.4901	-113.422	149.176	47.5985	-142.195	152.6	38.8225	-167.663	173.726	38.3685	-100.038	183.7	33.7158	-115.648	192.933	32.8129	-140.334	155.648	60.756	-65.3846	163.56	60.7446	-34.682	125.93	68.182	-46.3322	
52	0.433333	89.4205	50.9599	-37.9773	72.07	36.2581	-63.442	66.5275	24.9179	-89.2049	65.8196	12.5406	-109.646	96.7571	56.8861	-115.379	81.5227	33.2918	-130.775	83.4441	1.37083	-121.716	123.474	63.8307	-122.048	112.026	57.2817	-146.011	106.05	41.093	-175.324	144.77	55.527	-114.826	144.072	52.7702	-139.043	144.454	45.244	-166.782	164.687	39.7768	-97.8572	172.867	35.6477	-117.337	182.491	33.1027	-136.899	152.964	63.2132	-62.1611	153.661	61.9858	-29.8966	123.523	72.1019	-45.111	
53	0.441667	102.343	59.9276	-37.5238	84.9042	50.284	-65.4138	78.6225	42.0044	-90.8042	82.4025	31.9426	-118.578	118.284	75.1193	-109.528	106.987	56.1395	-131.171	100.466	25.7054	-129.611	143.102	80.415	-113.38	138.61	76.3421	-145.868	132.268	64.1406	-172.207	167.776	67.4543	-108.323	168.92	67.4019	-131.522	164.711	63.2254	-161.446	182.964	46.2439	-89.6484	192.971	41.7151	-107.844	200.116	42.942	-128.831	167.895	68.6478	-51.4942	166.582	64.4781	-23.6463	136.205	82.0136	-38.9423	
54	0.45	130.124	65.7408	-38.1823	117.371	60.1281	-66.8861	111.234	56.8624	-98.1244	113.658	47.5795	-118.575	156.939	83.0578	-109.786	142.601	65.0738	-132.247	132.92	39.6131	-133.055	183.442	86.0428	-107.805	181.555	84.3884	-139.242	174.596	76.5842	-165.73	200.804	70.8664	-98.5604	209.461	69.6233	-121.011	209.562	66.6885	-147.934	213.723	47.258	-82.6801	223.863	42.9414	-101.255	236.247	38.5935	-122.975	192.907	68.5004	-45.7625	189.945	60.2987	-14.8683	164.967	85.2076	-35.4479	
55	0.458333	159.053	71.4189	-37.012	149.384	69.7895	-69.3163	142.257	66.7517	-95.7548	149.049	55.7809	-120.179	193.93	83.2854	-102.408	182.281	68.1948	-126.717	165.061	46.7934	-131.185	222.094	77.3516	-98.2704	222.695	77.2263	-127.939	218.547	68.1491	-161.189	234.811	56.3491	-84.9549	241.424	60.1287	-114.069	248.066	50.6636	-138.98	236.152	34.0399	-70.6563	249.778	25.3604	-90.4227	257.672	23.1717	-111.159	222.267	58.2066	-36.3842	210.934	51.081	-6.96532	193.865	82.3851	-29.0395	
56	0.466667	184.119	73.3787	-31.1433	172.462	75.1087	-63.4654	169.487	73.1884	-91.5688	168.988	62.7007	-114.206	222.141	68.5088	-96.3029	205.423	64.3424	-119.278	177.883	47.6263	-125.026	244.657	55.1644	-91.1975	245.995	53.1626	-119.12	238.481	49.7916	-152.383	247.027	34.5382	-79.5208	257.161	27.9432	-105.885	257.049	20.781	-131.66	242.117	11.6472	-66.3434	250.672	-2.33249	-84.1637	254.16	-12.2452	-106.658	235.776	35.321	-28.146	225.817	35.1159	-1.19586	221.156	66.225	-22.3919	
57	0.475	200.73	65.5635	-22.8262	190.856	72.6088	-57.0787	183.689	74.1929	-86.8488	178.115	63.4412	-102.896	229.109	47.6982	-90.0804	208.327	46.92	-114.996	176.447	44.3463	-114.469	242.115	20.9959	-88.8605	241.317	22.4088	-119.921	230.992	20.3233	-148.267	235.849	0.146505	-76.5608	240.056	-4.65112	-102.663	235.803	-6.96119	-131.434	222.993	-20.2952	-63.5447	223.386	-27.2545	-82.5079	221.123	-40.263	-106.903	232.633	11.2861	-25.0132	225.228	10.3479	0.384456	232.314	41.2562	-17.787	
58	0.483333	206.964	46.9127	-16.5051	196.592	61.3454	-43.5853	189.498	68.2297	-71.4627	176.77	58.0559	-93.1154	215.549	21.6349	-83.9929	194.519	36.0894	-106.767	166.945	45.4959	-101.318	218.608	-6.03323	-82.602	213.582	-7.07858	-115.737	203.076	1.6004	-146.225	207.126	-20.48	-72.7486	201.057	-30.3215	-99.1972	194.694	-30.4064	-123.566	184.303	-36.6102	-55.5293	177.238	-45.5084	-74.4925	169.197	-56.1035	-94.1062	208.808	-16.1472	-18.9003	207.144	-12.2676	11.1568	225.325	13.7096	-11.034	
59	0.491667	196.027	23.2246	-3.50339	192.988	44.2934	-30.9237	180.43	48.0765	-58.1974	166.137	50.471	-75.4445	190.192	3.15686	-74.0645	171.392	20.2095	-93.0335	147.562	39.661	-84.0192	179.198	-25.4763	-76.6458	173.043	-22.3025	-104.778	162.616	-12.7346	-130.979	161.124	-38.0726	-62.0701	152.386	-42.0597	-86.6288	140.819	-40.0321	-109.895	138.817	-41.9538	-40.1387	125.753	-47.2479	-56.7728	115.417	-51.5262	-75.515	174.537	-35.2152	-13.8929	177.334	-33.2124	20.406	200.811	-15.5044	-1.81542	
60	0.5	183.664	5.23796	10.4929	177.994	22.3289	-16.6195	169.457	35.75	-42.784	151.747	42.1447	-61.3272	160.737	-12.9027	-64.253	148.727	14.2936	-79.8138	133.99	39.2382	-68.6397	147.057	-34.9891	-60.6713	140.437	-27.0176	-88.9617	122.905	-14.1667	-118.99	122.965	-43.358	-50.6309	113.193	-41.8252	-70.7965	100.016	-37.5212	-94.9662	103.555	-42.1415	-24.2022	92.3006	-42.5881	-45.1802	76.0207	-47.7607	-55.2535	142.168	-49.0143	0.747551	148.215	-48.3675	31.2159	174.224	-35.9802	5.16173	
61	0.508333	169.63	7.1826	13.2573	162.476	28.6686	-10.0202	148.131	36.9647	-37.6262	129.322	34.0598	-51.6887	155.797	-14.9615	-54.1717	134.287	3.47689	-75.7825	119.011	26.8764	-70.0324	139.176	-39.4805	-52.6838	132.193	-31.0494	-84.1236	115.82	-18.561	-108.824	125.579	-48.5307	-42.9099	115.44	-50.9114	-63.6489	99.1685	-48.6406	-86.8567	106.314	-54.7241	-22.2953	92.4719	-58.1698	-34.7861	77.49	-63.3111	-57.5962	141.493	-51.8082	6.23412	148.309	-50.9849	36.4668	173.34	-30.6825	11.8264	
62	0.516667	154.443	26.456	15.0132	134.865	37.3497	-8.79818	118.452	40.1953	-37.7882	103.768	35.4479	-53.1384	154.382	-1.75017	-54.0646	134.874	3.77359	-77.4511	105.81	17.673	-82.7581	152.116	-27.7225	-59.7148	141.109	-23.0846	-84.2224	117.128	-21.6878	-110.356	143.614	-44.2451	-42.7788	136.365	-46.0844	-71.4638	119.049	-50.3117	-94.8363	130.781	-59.0249	-21.9284	122.076	-65.7812	-43.9412	110.141	-70.9533	-64.9851	161.101	-37.6708	7.06502	165.55	-37.7075	37.3671	174.48	-7.30936	10.6823	
63	0.525	132.711	38.401	14.0972	110.118	39.4643	-8.1682	92.477	40.4274	-32.7048	78.5799	31.6241	-52.9884	147.674	19.601	-56.4653	128.708	23.8279	-83.2741	104.469	13.2467	-95.3184	157.454	-3.61674	-60.0827	147.199	-4.4048	-85.2845	125.768	-13.1966	-115.6	159.146	-23.7133	-47.0262	153.787	-29.8051	-73.2396	141.913	-36.8899	-96.2889	156.545	-43.1537	-28.3285	153.407	-49.1336	-48.2591	148.207	-61.8388	-70.1727	173.851	-13.3346	-0.429748	175.592	-10.9874	33.3029	167.508	22.1604	8.87789	
64	0.533333	117.969	37.7108	20.9206	92.9233	34.5743	-7.11274	75.1114	30.5111	-26.1377	65.905	20.4498	-48.9326	134.196	39.5212	-54.9739	118.127	35.3011	-84.7515	104.906	22.7052	-103.047	153.024	22.4941	-62.5697	146.938	15.1061	-89.5513	131.389	8.4864	-117.829	165.782	1.19852	-51.9962	165.381	-5.90537	-81.6392	157.985	-11.5042	-101.604	172.551	-18.2539	-35.3867	175.677	-27.0314	-56.7681	178.37	-38.3391	-76.1785	175.444	9.67092	-4.28593	178.689	11.3466	28.3824	156.154	37.6092	10.6189	
65	0.541667	109.862	34.3191	18.6313	90.722	23.8259	-4.34784	71.4641	18.7542	-25.2649	62.6304	7.95951	-44.2993	124.167	43.7536	-55.4178	114.132	37.8709	-84.6532	103.589	31.3987	-104.108	151.324	34.0925	-67.3105	144.066	30.7215	-90.8919	132.415	24.1243	-119.48	164.912	20.8129	-57.5157	165.622	18.0629	-82.2389	163.164	11.2339	-108.777	180.768	2.24432	-41.1419	188.751	-5.29085	-62.5641	192.465	-10.135	-80.8144	173.341	27.4951	-4.48513	174.946	28.4187	26.2857	149.125	47.2906	6.30619	
66	0.55	108.975	30.9885	17.1497	91.8648	17.2167	-3.08054	72.1386	8.85662	-27.4214	65.8406	-2.39417	-44.5314	120.147	42.8348	-60.2867	107.64	41.4665	-81.8424	98.578	34.3512	-108.817	147.291	41.6362	-65.0592	142.244	39.5041	-93.1502	135.954	32.7181	-125.775	168.038	32.1518	-61.49	169.253	30.9799	-86.8436	167.693	26.8227	-109.589	186.003	17.2312	-42.4046	192.824	14.3151	-60.1847	204.31	9.15699	-83.8269	174.525	39.0251	-11.0825	176.266	39.0043	20.2482	143.25	50.4305	6.97172	
67	0.558333	110.572	30.1967	16.8484	95.4143	14.0734	-4.15269	80.4344	2.4205	-27.6015	68.7563	-9.38336	-41.4758	120.63	43.288	-60.9077	107.417	40.1316	-84.4208	102.458	35.5299	-109.177	144.274	46.0359	-69.9487	143.92	44.1542	-93.9008	139.448	40.0774	-124.143	170.289	38.7171	-57.4237	170.271	39.8124	-83.3421	171.731	35.9037	-110.306	191.56	26.009	-42.3503	197.077	26.7453	-66.8648	207.941	23.8565	-84.0492	172.662	46.7174	-9.38986	178.971	49.2014	21.0335	139.575	54.8637	2.66025	
